<svg xmlns="http://www.w3.org/2000/svg" xmlns:xlink="http://www.w3.org/1999/xlink" width="47.307" height="47.296" viewBox="0 0 47.307 47.296">
  <defs>
    <linearGradient id="linear-gradient" x1="0.163" y1="1" x2="1" y2="-0.135" gradientUnits="objectBoundingBox">
      <stop offset="0" stop-color="#f57131"/>
      <stop offset="1" stop-color="#a333af"/>
    </linearGradient>
  </defs>
  <path id="Icon_awesome-instagram" data-name="Icon awesome-instagram" d="M23.653,13.76A12.126,12.126,0,1,0,35.779,25.886,12.107,12.107,0,0,0,23.653,13.76Zm0,20.01a7.884,7.884,0,1,1,7.884-7.884,7.9,7.9,0,0,1-7.884,7.884ZM39.1,13.264a2.828,2.828,0,1,1-2.828-2.828A2.822,2.822,0,0,1,39.1,13.264Zm8.031,2.871c-.179-3.789-1.045-7.145-3.82-9.91S37.194,2.594,33.4,2.4c-3.9-.222-15.609-.222-19.514,0-3.778.179-7.134,1.045-9.91,3.81s-3.63,6.121-3.82,9.91c-.222,3.9-.222,15.609,0,19.514.179,3.789,1.045,7.145,3.82,9.91s6.121,3.63,9.91,3.82c3.9.222,15.609.222,19.514,0,3.789-.179,7.145-1.045,9.91-3.82s3.63-6.121,3.82-9.91c.222-3.9.222-15.6,0-19.5ZM42.09,39.827a7.981,7.981,0,0,1-4.5,4.5c-3.113,1.235-10.5.95-13.941.95s-10.839.274-13.941-.95a7.981,7.981,0,0,1-4.5-4.5c-1.235-3.113-.95-10.5-.95-13.941s-.274-10.839.95-13.941a7.981,7.981,0,0,1,4.5-4.5c3.113-1.235,10.5-.95,13.941-.95s10.839-.274,13.941.95a7.981,7.981,0,0,1,4.5,4.5c1.235,3.113.95,10.5.95,13.941S43.325,36.724,42.09,39.827Z" transform="translate(0.005 -2.238)" fill="url(#linear-gradient)"/>
</svg>
